<?xml version="1.0" encoding="utf-8"?>
<!-- Generator: Adobe Illustrator 16.0.0, SVG Export Plug-In . SVG Version: 6.00 Build 0)  -->
<!DOCTYPE svg PUBLIC "-//W3C//DTD SVG 1.1//EN" "http://www.w3.org/Graphics/SVG/1.1/DTD/svg11.dtd">
<svg version="1.1" id="Layer_1" xmlns="http://www.w3.org/2000/svg" xmlns:xlink="http://www.w3.org/1999/xlink" x="0px" y="0px"
	 width="1900px" height="900px" viewBox="0 0 1900 900" enable-background="new 0 0 1900 900" xml:space="preserve">
<g>
	<g>
		<path fill="#FFFFFF" d="M96.194,46.728c-0.29,0-0.547-0.088-0.772-0.266c-0.226-0.177-0.338-0.426-0.338-0.749v-33.32
			c0-0.321,0.121-0.563,0.362-0.724c0.241-0.161,0.523-0.242,0.845-0.242c0.29,0,0.563,0.081,0.821,0.242
			c0.257,0.162,0.386,0.403,0.386,0.724V44.41h14.246c0.29,0,0.507,0.121,0.652,0.362c0.145,0.242,0.217,0.507,0.217,0.797
			c0,0.29-0.073,0.555-0.217,0.797c-0.145,0.241-0.362,0.362-0.652,0.362H96.194z"/>
		<path fill="#FFFFFF" d="M115.703,46.728c-0.193,0-0.395-0.048-0.604-0.145c-0.21-0.097-0.379-0.217-0.507-0.362
			c-0.129-0.145-0.193-0.33-0.193-0.555c0-0.097,0.016-0.193,0.048-0.29l10.286-33.369c0.097-0.321,0.273-0.547,0.531-0.676
			c0.258-0.128,0.532-0.193,0.821-0.193s0.571,0.073,0.845,0.217c0.273,0.145,0.458,0.362,0.555,0.652l10.189,33.369
			c0.032,0.096,0.048,0.193,0.048,0.29c0,0.161-0.072,0.331-0.217,0.507c-0.146,0.178-0.323,0.314-0.532,0.411
			c-0.21,0.097-0.427,0.145-0.652,0.145c-0.226,0-0.427-0.056-0.604-0.169c-0.177-0.112-0.298-0.297-0.362-0.555l-2.366-7.678
			h-13.907l-2.318,7.678c-0.065,0.258-0.193,0.443-0.387,0.555C116.186,46.672,115.96,46.728,115.703,46.728z M119.759,36.104
			h12.555l-6.229-20.62L119.759,36.104z"/>
		<path fill="#FFFFFF" d="M150.326,47.018c-2.061,0-3.807-0.306-5.239-0.917c-1.433-0.611-2.52-1.328-3.26-2.149
			c-0.741-0.821-1.11-1.473-1.11-1.956c0-0.193,0.064-0.402,0.193-0.628c0.128-0.225,0.273-0.402,0.435-0.531
			c0.161-0.128,0.321-0.193,0.483-0.193c0.29,0,0.587,0.202,0.893,0.604c0.306,0.403,0.732,0.877,1.28,1.424
			c0.547,0.548,1.304,1.022,2.27,1.425c0.966,0.403,2.237,0.604,3.814,0.604c1.642,0,3.034-0.273,4.177-0.821
			c1.142-0.547,2.011-1.36,2.607-2.439c0.596-1.078,0.894-2.406,0.894-3.984c0-1.673-0.298-3.018-0.894-4.032
			c-0.596-1.014-1.369-1.835-2.318-2.463c-0.95-0.628-1.996-1.143-3.139-1.545c-1.143-0.402-2.286-0.813-3.428-1.231
			c-1.144-0.418-2.197-0.942-3.163-1.569c-0.966-0.628-1.747-1.473-2.342-2.535c-0.596-1.063-0.893-2.446-0.893-4.153
			c0-1.739,0.313-3.163,0.941-4.274c0.628-1.11,1.44-1.98,2.438-2.607c0.998-0.628,2.06-1.063,3.187-1.304
			c1.127-0.241,2.222-0.362,3.284-0.362c0.966,0,1.908,0.081,2.825,0.242c0.917,0.162,1.762,0.362,2.535,0.604
			c0.772,0.242,1.384,0.524,1.835,0.845c0.451,0.322,0.676,0.66,0.676,1.014c0,0.193-0.048,0.395-0.145,0.604
			c-0.096,0.21-0.226,0.395-0.386,0.555c-0.162,0.162-0.355,0.242-0.58,0.242c-0.258,0-0.645-0.152-1.159-0.458
			c-0.516-0.306-1.224-0.611-2.125-0.917c-0.902-0.306-2.076-0.459-3.525-0.459c-1.159,0-2.311,0.177-3.453,0.531
			c-1.143,0.354-2.084,0.966-2.825,1.835C144.37,16.885,144,18.125,144,19.734c0,1.385,0.297,2.495,0.894,3.332
			c0.596,0.837,1.376,1.514,2.342,2.028c0.966,0.515,2.011,0.958,3.139,1.328c1.126,0.371,2.27,0.797,3.428,1.28
			c1.159,0.483,2.213,1.095,3.163,1.835c0.949,0.741,1.722,1.723,2.318,2.946c0.596,1.224,0.894,2.801,0.894,4.732
			c0,2.286-0.427,4.153-1.28,5.602c-0.853,1.449-2.012,2.511-3.477,3.187C153.955,46.68,152.258,47.018,150.326,47.018z"/>
		<path fill="#FFFFFF" d="M164.571,46.728c-0.29,0-0.531-0.097-0.724-0.29c-0.193-0.193-0.29-0.418-0.29-0.676
			c0-0.257,0.08-0.531,0.242-0.821l16.515-31.195h-15.211c-0.322,0-0.572-0.121-0.749-0.362c-0.177-0.241-0.266-0.507-0.266-0.797
			s0.089-0.555,0.266-0.797c0.176-0.241,0.426-0.362,0.749-0.362h17.336c0.354,0,0.611,0.081,0.772,0.242
			c0.161,0.162,0.242,0.371,0.242,0.628c0,0.322-0.097,0.66-0.29,1.014L166.696,44.41h16.274c0.354,0,0.611,0.121,0.772,0.362
			c0.161,0.242,0.241,0.507,0.241,0.797c0,0.29-0.081,0.555-0.241,0.797c-0.161,0.241-0.419,0.362-0.772,0.362H164.571z"/>
		<path fill="#FFFFFF" d="M190.116,46.728c-0.29,0-0.548-0.088-0.772-0.266c-0.226-0.177-0.338-0.426-0.338-0.749v-33.32
			c0-0.321,0.121-0.563,0.362-0.724c0.241-0.161,0.523-0.242,0.845-0.242c0.29,0,0.563,0.081,0.821,0.242
			c0.257,0.162,0.386,0.403,0.386,0.724V44.41h14.246c0.29,0,0.507,0.121,0.652,0.362c0.145,0.242,0.217,0.507,0.217,0.797
			c0,0.29-0.072,0.555-0.217,0.797c-0.145,0.241-0.362,0.362-0.652,0.362H190.116z"/>
		<path fill="#FFFFFF" d="M219.379,47.018c-1.803,0-3.437-0.338-4.901-1.014c-1.466-0.676-2.625-1.746-3.477-3.211
			c-0.854-1.465-1.28-3.42-1.28-5.867V21.521c0-2.446,0.426-4.402,1.28-5.867c0.853-1.464,2.011-2.535,3.477-3.211
			c1.464-0.676,3.098-1.014,4.901-1.014c1.835,0,3.493,0.338,4.974,1.014c1.481,0.676,2.648,1.747,3.501,3.211
			c0.853,1.465,1.28,3.421,1.28,5.867v15.405c0,2.447-0.427,4.402-1.28,5.867s-2.02,2.535-3.501,3.211
			C222.872,46.68,221.214,47.018,219.379,47.018z M219.379,44.7c2.286,0,4.081-0.635,5.385-1.907
			c1.304-1.271,1.956-3.228,1.956-5.867V21.521c0-2.639-0.644-4.595-1.932-5.867c-1.288-1.271-3.091-1.907-5.409-1.907
			c-2.286,0-4.073,0.636-5.36,1.907c-1.288,1.272-1.932,3.228-1.932,5.867v15.405c0,2.64,0.644,4.596,1.932,5.867
			C215.306,44.064,217.093,44.7,219.379,44.7z"/>
	</g>
	<g>
		<path fill="#FFFFFF" d="M13.305,112.306c-1.014,0-1.836-0.241-2.463-0.724c-0.628-0.482-0.942-1.062-0.942-1.739V61.892
			c0-0.82,0.362-1.449,1.086-1.883c0.725-0.435,1.497-0.652,2.318-0.652h13.183c2.608,0,5.021,0.338,7.243,1.014
			c2.22,0.677,4.008,1.919,5.36,3.73c1.352,1.811,2.028,4.407,2.028,7.787c0,3.042-0.543,5.554-1.63,7.533
			c-1.086,1.98-2.596,3.381-4.527,4.201c1.497,0.58,2.8,1.34,3.912,2.282c1.11,0.941,1.979,2.198,2.607,3.767
			c0.627,1.57,0.942,3.585,0.942,6.048v1.376c0,3.719-0.628,6.689-1.883,8.91c-1.256,2.222-2.97,3.828-5.143,4.817
			c-2.173,0.99-4.636,1.485-7.388,1.485H13.305z M17.506,80.58h8.692c2.462,0,4.285-0.627,5.468-1.883
			c1.183-1.255,1.775-3.114,1.775-5.577c0-1.641-0.303-2.97-0.905-3.984c-0.604-1.014-1.462-1.762-2.572-2.246
			c-1.111-0.482-2.416-0.724-3.912-0.724h-8.547V80.58z M17.506,105.497h9.055c2.607,0,4.623-0.711,6.047-2.137
			c1.424-1.424,2.137-3.705,2.137-6.845v-1.159c0-3.187-0.713-5.433-2.137-6.736s-3.44-1.956-6.047-1.956h-9.055V105.497z"/>
		<path fill="#FFFFFF" d="M53.36,112.306c-0.822,0-1.594-0.217-2.318-0.652c-0.725-0.435-1.086-1.062-1.086-1.883V61.892
			c0-0.82,0.362-1.449,1.086-1.883c0.724-0.435,1.496-0.652,2.318-0.652h25.786c0.917,0,1.569,0.362,1.957,1.086
			c0.386,0.725,0.579,1.474,0.579,2.246c0,0.918-0.217,1.727-0.652,2.426c-0.435,0.701-1.063,1.051-1.884,1.051H57.634v16.587
			h11.155c0.82,0,1.449,0.314,1.883,0.941c0.435,0.628,0.652,1.353,0.652,2.173c0,0.677-0.194,1.34-0.58,1.992
			c-0.387,0.652-1.039,0.978-1.956,0.978H57.634v16.66h21.513c0.821,0,1.449,0.338,1.884,1.014c0.435,0.677,0.652,1.498,0.652,2.463
			c0,0.773-0.193,1.521-0.579,2.246c-0.387,0.724-1.04,1.086-1.957,1.086H53.36z"/>
		<path fill="#FFFFFF" d="M116.305,112.523c-0.628,0-1.195-0.217-1.702-0.652s-0.93-0.965-1.268-1.594l-10.648-20.716h-7.244v20.209
			c0,0.822-0.398,1.449-1.195,1.883c-0.797,0.435-1.678,0.652-2.644,0.652c-0.966,0-1.847-0.217-2.644-0.652
			c-0.797-0.435-1.195-1.062-1.195-1.883V61.819c0-0.676,0.229-1.255,0.688-1.738c0.458-0.482,1.098-0.725,1.919-0.725h13.763
			c3.042,0,5.819,0.447,8.33,1.34c2.51,0.895,4.515,2.416,6.012,4.563c1.496,2.149,2.246,5.107,2.246,8.874
			c0,2.897-0.447,5.313-1.34,7.243c-0.894,1.932-2.101,3.466-3.622,4.6c-1.521,1.135-3.249,1.968-5.179,2.499l10.141,19.05
			c0.096,0.145,0.168,0.326,0.217,0.543c0.048,0.217,0.073,0.398,0.073,0.543c0,0.628-0.243,1.244-0.725,1.847
			c-0.483,0.604-1.075,1.099-1.774,1.485C117.814,112.33,117.077,112.523,116.305,112.523z M95.444,83.405h8.692
			c2.704,0,4.864-0.652,6.483-1.956c1.617-1.304,2.427-3.524,2.427-6.664c0-3.139-0.81-5.36-2.427-6.664
			c-1.619-1.304-3.779-1.956-6.483-1.956h-8.692V83.405z"/>
		<path fill="#FFFFFF" d="M140.716,112.306c-0.967,0-1.847-0.217-2.645-0.652c-0.796-0.435-1.195-1.062-1.195-1.883V66.383h-11.228
			c-0.772,0-1.376-0.362-1.811-1.087c-0.435-0.724-0.652-1.545-0.652-2.463c0-0.869,0.192-1.666,0.579-2.39
			c0.386-0.724,1.015-1.086,1.883-1.086h30.061c0.917,0,1.568,0.362,1.956,1.086c0.386,0.725,0.58,1.498,0.58,2.318
			c0,0.967-0.206,1.811-0.616,2.535c-0.411,0.725-1.05,1.087-1.919,1.087h-11.155v43.388c0,0.822-0.398,1.449-1.195,1.883
			C142.563,112.089,141.682,112.306,140.716,112.306z"/>
		<path fill="#FFFFFF" d="M167.661,112.306c-0.966,0-1.847-0.217-2.644-0.652s-1.195-1.062-1.195-1.883V61.819
			c0-0.869,0.398-1.496,1.195-1.883c0.797-0.386,1.677-0.58,2.644-0.58c0.966,0,1.847,0.194,2.645,0.58
			c0.796,0.387,1.195,1.014,1.195,1.883v19.992h18.037V61.819c0-0.869,0.398-1.496,1.195-1.883c0.797-0.386,1.677-0.58,2.644-0.58
			c0.966,0,1.847,0.194,2.644,0.58c0.797,0.387,1.195,1.014,1.195,1.883v47.952c0,0.822-0.398,1.449-1.195,1.883
			s-1.678,0.652-2.644,0.652c-0.966,0-1.847-0.217-2.644-0.652s-1.195-1.062-1.195-1.883V87.896H171.5v21.875
			c0,0.822-0.398,1.449-1.195,1.883C169.508,112.089,168.627,112.306,167.661,112.306z"/>
		<path fill="#FFFFFF" d="M222.494,112.741c-3.091,0-5.856-0.531-8.293-1.593c-2.439-1.062-4.371-2.776-5.795-5.143
			c-1.425-2.365-2.137-5.505-2.137-9.417V75.509c0-3.911,0.712-7.05,2.137-9.417c1.424-2.365,3.356-4.08,5.795-5.143
			c2.438-1.062,5.202-1.594,8.293-1.594c3.042,0,5.795,0.532,8.257,1.594c2.463,1.063,4.419,2.777,5.868,5.143
			c1.449,2.367,2.173,5.505,2.173,9.417v21.079c0,3.911-0.724,7.051-2.173,9.417c-1.449,2.367-3.404,4.081-5.868,5.143
			C228.289,112.21,225.536,112.741,222.494,112.741z M222.494,105.932c2.655,0,4.756-0.76,6.302-2.281
			c1.545-1.521,2.318-3.875,2.318-7.063V75.509c0-3.187-0.761-5.541-2.281-7.063c-1.521-1.521-3.635-2.281-6.338-2.281
			c-2.705,0-4.817,0.76-6.338,2.281c-1.521,1.521-2.282,3.875-2.282,7.063v21.079c0,3.187,0.761,5.541,2.282,7.063
			C217.677,105.171,219.789,105.932,222.494,105.932z"/>
		<path fill="#FFFFFF" d="M260.16,112.306c-0.967,0-1.847-0.217-2.644-0.652c-0.796-0.435-1.195-1.062-1.195-1.883V66.383h-11.228
			c-0.773,0-1.376-0.362-1.811-1.087c-0.435-0.724-0.651-1.545-0.651-2.463c0-0.869,0.192-1.666,0.579-2.39
			c0.386-0.724,1.014-1.086,1.883-1.086h30.061c0.917,0,1.568,0.362,1.956,1.086c0.386,0.725,0.58,1.498,0.58,2.318
			c0,0.967-0.206,1.811-0.616,2.535c-0.411,0.725-1.05,1.087-1.919,1.087h-11.155v43.388c0,0.822-0.398,1.449-1.195,1.883
			S261.125,112.306,260.16,112.306z"/>
		<path fill="#FFFFFF" d="M298.623,112.306c-0.967,0-1.848-0.217-2.645-0.652c-0.796-0.435-1.195-1.062-1.195-1.883V91.445
			c0-0.29-0.073-0.555-0.217-0.796L279.572,63.63c-0.097-0.241-0.157-0.446-0.181-0.616c-0.025-0.168-0.036-0.326-0.036-0.471
			c0-0.627,0.265-1.17,0.797-1.629c0.531-0.458,1.17-0.833,1.919-1.123c0.749-0.29,1.46-0.435,2.137-0.435
			c0.627,0,1.123,0.145,1.485,0.435c0.362,0.29,0.688,0.725,0.978,1.304l11.952,22.961l11.879-22.961
			c0.337-0.58,0.688-1.014,1.05-1.304c0.362-0.29,0.857-0.435,1.485-0.435c0.676,0,1.388,0.145,2.137,0.435
			c0.749,0.29,1.388,0.665,1.92,1.123c0.53,0.459,0.796,1.002,0.796,1.629c0,0.145-0.012,0.302-0.036,0.471
			c-0.025,0.17-0.109,0.375-0.254,0.616l-14.922,27.018c-0.145,0.242-0.217,0.507-0.217,0.796v18.326
			c0,0.822-0.398,1.449-1.195,1.883S299.588,112.306,298.623,112.306z"/>
	</g>
	<g>
	</g>
</g>
<text transform="matrix(1 0 0 1 1950.5 257.6123)" font-family="'CeraBasic-Regular'" font-size="50">ASZLO</text>
<text transform="matrix(1 0 0 1 2025.5625 317.7261)" font-family="'CeraBasic-Regular'" font-size="60">ERTHOTY</text>
</svg>
